<svg width="48" height="48" viewBox="0 0 48 48" fill="none" xmlns="http://www.w3.org/2000/svg">
<circle cx="6.85714" cy="24" r="6.85714" fill="#282828"/>
<circle cx="24.0002" cy="24" r="6.85714" fill="#282828"/>
<path d="M24 0H6.85714C3.07005 0 0 3.07005 0 6.85714C0 10.6442 3.07005 13.7143 6.85714 13.7143H24C29.6806 13.7143 34.2857 18.3194 34.2857 24C34.2857 29.6806 29.6806 34.2857 24 34.2857H6.85714C3.07005 34.2857 0 37.3558 0 41.1429C0 44.93 3.07005 48 6.85714 48H24C37.2548 48 48 37.2548 48 24C48 10.7452 37.2548 0 24 0Z" fill="url(#paint0_linear_1_1533)"/>
<defs>
<linearGradient id="paint0_linear_1_1533" x1="10.2685" y1="5.19317e-05" x2="35.0912" y2="48.0002" gradientUnits="userSpaceOnUse">
<stop stop-color="#810155"/>
<stop offset="0.190471" stop-color="#BB012F"/>
<stop offset="0.500372" stop-color="#D20303"/>
<stop offset="0.809523" stop-color="#FE6B00"/>
<stop offset="1" stop-color="#FFCD4C"/>
</linearGradient>
</defs>
</svg>
